<mxfile host="app.diagrams.net" modified="2023-03-24T01:57:32.362Z" agent="Mozilla/5.0 (Windows NT 10.0; Win64; x64) AppleWebKit/537.36 (KHTML, like Gecko) Chrome/111.0.0.0 Safari/537.36 Edg/111.0.1661.51" version="21.1.0" etag="-ezqjozidVNkJuYFlDfe" type="github">
  <diagram name="Page-1" id="FtbimhBMZvsNWdiT7WP3">
    <mxGraphModel>
      <root>
        <mxCell id="0" />
        <mxCell id="1" parent="0" />
      </root>
    </mxGraphModel>
  </diagram>
</mxfile>
